<?xml version="1.0" encoding="utf-8"?>
<!-- Generator: Adobe Illustrator 22.1.0, SVG Export Plug-In . SVG Version: 6.00 Build 0)  -->
<svg version="1.1" id="레이어_1" xmlns="http://www.w3.org/2000/svg" xmlns:xlink="http://www.w3.org/1999/xlink" x="0px"
	 y="0px" viewBox="0 0 24 24" style="enable-background:new 0 0 24 24;" xml:space="preserve">
<style type="text/css">
	.st0{fill:none;}
	.st1{fill:#673AB7;}
</style>
<path class="st0" d="M0,0h24v24H0V0z"/>
<path class="st1" d="M23.7,16.7c-3-2.9-7.2-4.7-11.7-4.7s-8.7,1.8-11.7,4.7C0.1,16.9,0,17.1,0,17.4c0,0.3,0.1,0.5,0.3,0.7l2.5,2.5
	c0.2,0.2,0.4,0.3,0.7,0.3c0.3,0,0.5-0.1,0.7-0.3c0.8-0.7,1.7-1.4,2.7-1.9c0.3-0.2,0.6-0.5,0.6-0.9v-3.1c1.5-0.5,3-0.7,4.6-0.7
	s3.1,0.3,4.6,0.7v3.1c0,0.4,0.2,0.7,0.6,0.9c1,0.5,1.9,1.1,2.7,1.9c0.2,0.2,0.4,0.3,0.7,0.3c0.3,0,0.5-0.1,0.7-0.3l2.5-2.5
	c0.2-0.2,0.3-0.4,0.3-0.7C24,17.1,23.9,16.8,23.7,16.7z M21.2,6.3l-1.4-1.4l-3.6,3.6l1.4,1.4C17.6,9.8,21.1,6.3,21.2,6.3z M13,2h-2
	v5h2V2z M6.4,9.8l1.4-1.4L4.3,4.8L2.8,6.3C2.9,6.3,6.4,9.8,6.4,9.8z"/>
</svg>
